<svg xmlns="http://www.w3.org/2000/svg" xmlns:xlink="http://www.w3.org/1999/xlink" version="1.1" width="2430" height="1600" style="width: 2430px; height: 1600px; background: #ffffff" viewBox="0 0 2430 1600"><style id="v-3" type="text/css">        .joint-element .scalable * {            vector-effect: non-scaling-stroke;        }    </style><defs joint-selector="defs"><marker id="v-21252848929" orient="auto" overflow="visible" markerUnits="userSpaceOnUse"><path id="v-241" stroke="#444444" fill="#444444" transform="rotate(180)" d="M 20 -10 0 0 20 10 Z"></path></marker><marker id="v-2-527367903" orient="auto" overflow="visible" markerUnits="userSpaceOnUse"><path id="v-1307" stroke="#cccccc" fill="#cccccc" transform="rotate(180)" d="M 20 -10 0 0 20 10 Z"></path></marker></defs><g joint-selector="layers"  transform="matrix(1,0,0,1,0,0)"><g  style="pointer-events: none;"></g><g ></g><g  style="user-select: none;"><!--z-index:0--><!--z-index:1--><!--z-index:2--><!--z-index:3--><!--z-index:4--><!--z-index:5--><!--z-index:6--><!--z-index:7--><!--z-index:8--><!--z-index:9--><!--z-index:10--><!--z-index:11--><!--z-index:12--><!--z-index:13--><g   id="j_629"  transform="translate(20,1556)"><g id="v-7299"><text  id="v-7300" font-size="24px" xml:space="preserve" y="0.8em" font-weight="normal" text-anchor="start" fill="#444444" pointer-events="none" display="block" font-family="Tahoma, Verdana, Helvetica, Arial"><tspan dy="0" >Donnerstag, 8. Oktober 2026 um 11:31 Mitteleuropäische Sommerzeit</tspan></text></g></g><!--z-index:14--><g   id="j_628"  transform="translate(20,1522)"><g id="v-7297"><text  id="v-7298" font-size="24px" xml:space="preserve" y="0.8em" font-weight="normal" text-anchor="start" fill="#444444" pointer-events="none" display="block" font-family="Tahoma, Verdana, Helvetica, Arial"><tspan dy="0" >C4 Level 1: System-Kontextdiagramm für TN-Watch</tspan></text></g></g><!--z-index:15--><g   id="j_627"  transform="translate(20,1476)"><g id="v-7295"><text  id="v-7296" font-size="36px" xml:space="preserve" y="0.8em" font-weight="normal" text-anchor="start" fill="#444444" pointer-events="none" display="block" font-family="Tahoma, Verdana, Helvetica, Arial"><tspan dy="0" >System Context View: TN-Watch System</tspan></text></g></g><!--z-index:16--><g   id="j_630"  transform="translate(225,493)" style=""><g  id="v-7307" style="opacity: 1;"><rect  x="0" y="160" width="400" height="240" rx="70" id="v-7309" stroke-width="2" pointer-events="visiblePainted" fill="#08427b" stroke="#073b6f" stroke-dasharray="" style="fill: rgb(8, 66, 123); stroke: rgb(7, 59, 111);"></rect><circle  cx="200" cy="88.88888888888889" r="88.88888888888889" id="v-7308" stroke-width="2" pointer-events="visiblePainted" fill="#08427b" stroke="#073b6f" stroke-dasharray="" style="fill: rgb(8, 66, 123); stroke: rgb(7, 59, 111);"></circle><line  x1="80" y1="266.6666666666667" x2="80" y2="400" id="v-7315" stroke="#073b6f" stroke-width="1" stroke-dasharray="" style="stroke: rgb(7, 59, 111);"></line><line  x1="320" y1="266.6666666666667" x2="320" y2="400" id="v-7316" stroke="#073b6f" stroke-width="1" stroke-dasharray="" style="stroke: rgb(7, 59, 111);"></line><text  id="v-7310" font-size="33.599999999999994px" xml:space="preserve" y="167.94" font-weight="bold" text-anchor="middle" pointer-events="visible" font-family="Tahoma, Verdana, Helvetica, Arial" fill="#ffffff" dominant-baseline="hanging" transform="matrix(1,0,0,1,200,0)" style="fill: rgb(255, 255, 255);"><tspan dy="0" >Betriebsleiter /</tspan><tspan dy="1.2em" x="0" >Flottenmanager</tspan></text><text  id="v-7311" font-size="16.799999999999997px" xml:space="preserve" y="249.85999999999999" text-anchor="middle" font-family="Tahoma, Verdana, Helvetica, Arial" fill="#ffffff" dominant-baseline="hanging" transform="matrix(1,0,0,1,200,0)" style="display: block; fill: rgb(255, 255, 255);"><tspan dy="0" >[Person]</tspan></text><text  id="v-7312" font-size="24px" xml:space="preserve" y="281.65999999999997" text-anchor="middle" font-family="Tahoma, Verdana, Helvetica, Arial" fill="#ffffff" dominant-baseline="hanging" transform="matrix(1,0,0,1,200,0)" style="display: block; fill: rgb(255, 255, 255);"><tspan dy="0" >Verwaltet die Geräteflotte,</tspan><tspan dy="1.2em" x="0" >analysiert Störungen und</tspan><tspan dy="1.2em" x="0" >konfiguriert Schwellenwerte</tspan><tspan dy="1.2em" x="0" >(Markus).</tspan></text><g  id="v-7313" font-weight="normal" text-anchor="middle" color="#ffffff" transform="matrix(1,0,0,1,197.5,368)" style="fill: rgb(255, 255, 255);" display="none"><g ></g><g ></g><g ></g><g ></g></g><image  id="v-7314"></image></g></g><!--z-index:17--><g   id="j_631"  transform="translate(225,943)" style=""><g  id="v-7323" style="opacity: 1;"><rect  x="0" y="160" width="400" height="240" rx="70" id="v-7325" stroke-width="2" pointer-events="visiblePainted" fill="#08427b" stroke="#073b6f" stroke-dasharray="" style="fill: rgb(8, 66, 123); stroke: rgb(7, 59, 111);"></rect><circle  cx="200" cy="88.88888888888889" r="88.88888888888889" id="v-7324" stroke-width="2" pointer-events="visiblePainted" fill="#08427b" stroke="#073b6f" stroke-dasharray="" style="fill: rgb(8, 66, 123); stroke: rgb(7, 59, 111);"></circle><line  x1="80" y1="266.6666666666667" x2="80" y2="400" id="v-7331" stroke="#073b6f" stroke-width="1" stroke-dasharray="" style="stroke: rgb(7, 59, 111);"></line><line  x1="320" y1="266.6666666666667" x2="320" y2="400" id="v-7332" stroke="#073b6f" stroke-width="1" stroke-dasharray="" style="stroke: rgb(7, 59, 111);"></line><text  id="v-7326" font-size="33.599999999999994px" xml:space="preserve" y="188.10000000000002" font-weight="bold" text-anchor="middle" pointer-events="visible" font-family="Tahoma, Verdana, Helvetica, Arial" fill="#ffffff" dominant-baseline="hanging" transform="matrix(1,0,0,1,200,0)" style="fill: rgb(255, 255, 255);"><tspan dy="0" >Servicetechniker</tspan></text><text  id="v-7327" font-size="16.799999999999997px" xml:space="preserve" y="229.70000000000002" text-anchor="middle" font-family="Tahoma, Verdana, Helvetica, Arial" fill="#ffffff" dominant-baseline="hanging" transform="matrix(1,0,0,1,200,0)" style="display: block; fill: rgb(255, 255, 255);"><tspan dy="0" >[Person]</tspan></text><text  id="v-7328" font-size="24px" xml:space="preserve" y="261.5" text-anchor="middle" font-family="Tahoma, Verdana, Helvetica, Arial" fill="#ffffff" dominant-baseline="hanging" transform="matrix(1,0,0,1,200,0)" style="display: block; fill: rgb(255, 255, 255);"><tspan dy="0" >Wartet Batterien vor Ort, nutzt</tspan><tspan dy="1.2em" x="0" >GPS-Standorte und Historien</tspan><tspan dy="1.2em" x="0" >auf mobilen Endgeräten (Kevin</tspan><tspan dy="1.2em" x="0" >/ Anja).</tspan></text><g  id="v-7329" font-weight="normal" text-anchor="middle" color="#ffffff" transform="matrix(1,0,0,1,197.5,368)" style="fill: rgb(255, 255, 255);" display="none"><g ></g><g ></g><g ></g><g ></g></g><image  id="v-7330"></image></g></g><!--z-index:18--><g   id="j_632"  transform="translate(200,143)" style=""><g  id="v-7339" style="opacity: 1;"><rect  id="v-7340" rx="1" ry="1" stroke-width="2" pointer-events="visiblePainted" fill="#999999" stroke="#8a8a8a" stroke-dasharray="" width="450" height="300" style="fill: rgb(153, 153, 153); stroke: rgb(138, 138, 138);"></rect><text  id="v-7341" font-size="33.599999999999994px" xml:space="preserve" y="43.70000000000002" font-weight="bold" text-anchor="middle" pointer-events="visible" font-family="Tahoma, Verdana, Helvetica, Arial" fill="#ffffff" dominant-baseline="hanging" transform="matrix(1,0,0,1,225,0)" style="fill: rgb(255, 255, 255);"><tspan dy="0" >Telemetrie-Datenquelle</tspan></text><text  id="v-7342" font-size="16.799999999999997px" xml:space="preserve" y="85.30000000000001" text-anchor="middle" font-family="Tahoma, Verdana, Helvetica, Arial" fill="#ffffff" dominant-baseline="hanging" transform="matrix(1,0,0,1,225,0)" style="display: block; fill: rgb(255, 255, 255);"><tspan dy="0" >[Software System]</tspan></text><text  id="v-7343" font-size="24px" xml:space="preserve" y="117.10000000000001" text-anchor="middle" font-family="Tahoma, Verdana, Helvetica, Arial" fill="#ffffff" dominant-baseline="hanging" transform="matrix(1,0,0,1,225,0)" style="display: block; fill: rgb(255, 255, 255);"><tspan dy="0" >Liefert Telemetriedaten (Spannung,</tspan><tspan dy="1.2em" x="0" >Strom, GPS) per MQTT –</tspan><tspan dy="1.2em" x="0" >transparent als reale Hardware-Box</tspan><tspan dy="1.2em" x="0" >(TrafficNode) oder</tspan><tspan dy="1.2em" x="0" >Software-Simulator.</tspan></text><g  id="v-7344" color="#ffffff" transform="matrix(1,0,0,1,222.5,268)" style="fill: rgb(255, 255, 255);" display="none"><g ></g><g ></g><g ></g><g ></g></g><image  id="v-7345"></image></g></g><!--z-index:19--><g   id="j_633"  transform="translate(1780,368)" style=""><g  id="v-7352" style="opacity: 1;"><rect  id="v-7353" rx="1" ry="1" stroke-width="2" pointer-events="visiblePainted" fill="#999999" stroke="#8a8a8a" stroke-dasharray="" width="450" height="300" style="fill: rgb(153, 153, 153); stroke: rgb(138, 138, 138);"></rect><text  id="v-7354" font-size="33.599999999999994px" xml:space="preserve" y="72.5" font-weight="bold" text-anchor="middle" pointer-events="visible" font-family="Tahoma, Verdana, Helvetica, Arial" fill="#ffffff" dominant-baseline="hanging" transform="matrix(1,0,0,1,225,0)" style="fill: rgb(255, 255, 255);"><tspan dy="0" >Identity Provider (OIDC)</tspan></text><text  id="v-7355" font-size="16.799999999999997px" xml:space="preserve" y="114.1" text-anchor="middle" font-family="Tahoma, Verdana, Helvetica, Arial" fill="#ffffff" dominant-baseline="hanging" transform="matrix(1,0,0,1,225,0)" style="display: block; fill: rgb(255, 255, 255);"><tspan dy="0" >[Software System]</tspan></text><text  id="v-7356" font-size="24px" xml:space="preserve" y="145.89999999999998" text-anchor="middle" font-family="Tahoma, Verdana, Helvetica, Arial" fill="#ffffff" dominant-baseline="hanging" transform="matrix(1,0,0,1,225,0)" style="display: block; fill: rgb(255, 255, 255);"><tspan dy="0" >Zentraler Authentifizierungs- und</tspan><tspan dy="1.2em" x="0" >Autorisierungsdienst (z. B.</tspan><tspan dy="1.2em" x="0" >Keycloak).</tspan></text><g  id="v-7357" color="#ffffff" transform="matrix(1,0,0,1,222.5,268)" style="fill: rgb(255, 255, 255);" display="none"><g ></g><g ></g><g ></g><g ></g></g><image  id="v-7358"></image></g></g><!--z-index:20--><g   id="j_634"  transform="translate(1780,718)" style=""><g  id="v-7362" style="opacity: 1;"><rect  id="v-7363" rx="1" ry="1" stroke-width="2" pointer-events="visiblePainted" fill="#999999" stroke="#8a8a8a" stroke-dasharray="" width="450" height="300" style="fill: rgb(153, 153, 153); stroke: rgb(138, 138, 138);"></rect><text  id="v-7364" font-size="33.599999999999994px" xml:space="preserve" y="86.9" font-weight="bold" text-anchor="middle" pointer-events="visible" font-family="Tahoma, Verdana, Helvetica, Arial" fill="#ffffff" dominant-baseline="hanging" transform="matrix(1,0,0,1,225,0)" style="fill: rgb(255, 255, 255);"><tspan dy="0" >Google Maps API</tspan></text><text  id="v-7365" font-size="16.799999999999997px" xml:space="preserve" y="128.5" text-anchor="middle" font-family="Tahoma, Verdana, Helvetica, Arial" fill="#ffffff" dominant-baseline="hanging" transform="matrix(1,0,0,1,225,0)" style="display: block; fill: rgb(255, 255, 255);"><tspan dy="0" >[Software System]</tspan></text><text  id="v-7366" font-size="24px" xml:space="preserve" y="160.3" text-anchor="middle" font-family="Tahoma, Verdana, Helvetica, Arial" fill="#ffffff" dominant-baseline="hanging" transform="matrix(1,0,0,1,225,0)" style="display: block; fill: rgb(255, 255, 255);"><tspan dy="0" >Externer Kartendienst für</tspan><tspan dy="1.2em" x="0" >Routenplanung und Geocoding.</tspan></text><g  id="v-7367" color="#ffffff" transform="matrix(1,0,0,1,222.5,268)" style="fill: rgb(255, 255, 255);" display="none"><g ></g><g ></g><g ></g><g ></g></g><image  id="v-7368"></image></g></g><!--z-index:21--><g   id="j_635"  transform="translate(990,543)" style=""><g  id="v-7372" style="opacity: 1;"><rect  id="v-7373" rx="1" ry="1" stroke-width="2" pointer-events="visiblePainted" fill="#1168bd" stroke="#0f5eaa" stroke-dasharray="" width="450" height="300" style="fill: rgb(17, 104, 189); stroke: rgb(15, 94, 170);"></rect><text  id="v-7374" font-size="33.599999999999994px" xml:space="preserve" y="58.10000000000001" font-weight="bold" text-anchor="middle" pointer-events="visible" font-family="Tahoma, Verdana, Helvetica, Arial" fill="#ffffff" dominant-baseline="hanging" transform="matrix(1,0,0,1,225,0)" style="fill: rgb(255, 255, 255);"><tspan dy="0" >TN-Watch System</tspan></text><text  id="v-7375" font-size="16.799999999999997px" xml:space="preserve" y="99.7" text-anchor="middle" font-family="Tahoma, Verdana, Helvetica, Arial" fill="#ffffff" dominant-baseline="hanging" transform="matrix(1,0,0,1,225,0)" style="display: block; fill: rgb(255, 255, 255);"><tspan dy="0" >[Software System]</tspan></text><text  id="v-7376" font-size="24px" xml:space="preserve" y="131.5" text-anchor="middle" font-family="Tahoma, Verdana, Helvetica, Arial" fill="#ffffff" dominant-baseline="hanging" transform="matrix(1,0,0,1,225,0)" style="display: block; fill: rgb(255, 255, 255);"><tspan dy="0" >Zentrales webbasiertes</tspan><tspan dy="1.2em" x="0" >Überwachungs- und</tspan><tspan dy="1.2em" x="0" >Koordinierungssystem für mobile</tspan><tspan dy="1.2em" x="0" >Verkehrsleitsysteme.</tspan></text><g  id="v-7377" color="#ffffff" transform="matrix(1,0,0,1,210,268)" style="fill: rgb(255, 255, 255);" display="none"><g  transform="translate(5 0)"><svg xmlns="http://www.w3.org/2000/svg" width="20" height="20" fill="currentColor" viewBox="0 0 16 16"><path fill-rule="evenodd" d="M6.5 12a5.5 5.5 0 1 0 0-11 5.5 5.5 0 0 0 0 11zM13 6.5a6.5 6.5 0 1 1-13 0 6.5 6.5 0 0 1 13 0z"></path><path d="M10.344 11.742c.03.04.062.078.098.115l3.85 3.85a1 1 0 0 0 1.415-1.414l-3.85-3.85a1.007 1.007 0 0 0-.115-.1 6.538 6.538 0 0 1-1.398 1.4z"></path><path fill-rule="evenodd" d="M6.5 3a.5.5 0 0 1 .5.5V6h2.5a.5.5 0 0 1 0 1H7v2.5a.5.5 0 0 1-1 0V7H3.5a.5.5 0 0 1 0-1H6V3.5a.5.5 0 0 1 .5-.5z"></path></svg></g><g ></g><g ></g><g ></g></g><image  id="v-7378"></image></g></g><!--z-index:22--><g   id="j_636"  style="opacity: 1;"><path fill="none" cursor="pointer" stroke="transparent" stroke-linecap="round" joint-selector="wrapper" id="v-7390" stroke-width="10" stroke-linejoin="round" d="M 650 293 L 810 293 C 816.6666666666666 293 822.3333333333333 295.3333333333333 827 300 L 1066.88 543"></path><path fill="none" pointer-events="none" joint-selector="line" id="v-7389" stroke="#444444" stroke-width="2" stroke-linejoin="round" stroke-dasharray="8 8" d="M 650 293 L 810 293 C 816.6666666666666 293 822.3333333333333 295.3333333333333 827 300 L 1066.88 543" marker-end="url(#v-21252848929)"></path><g id="v-7382" ><g id="v-7383"  label-idx="0" cursor="move" transform="matrix(1,0,0,1,819.4487915039062,294.8330078125)" style="cursor: default;"><rect joint-selector="rect" id="v-7386" fill="#ffffff" rx="3" ry="3" x="-95.61473083496094" y="-74.04962921142578" width="191.22946166992188" height="143.44140625" pointer-events="none"  style="display: block;"></rect><text joint-selector="text" id="v-7385" font-size="24px" xml:space="preserve" fill="#444444" text-anchor="middle" pointer-events="none" font-family="Tahoma, Verdana, Helvetica, Arial" font-weight="normal"  style="display: block;"><tspan dy="-2.1em" >Publiziert</tspan><tspan dy="1.2em" x="0" >Telemetriedaten</tspan><tspan dy="1.2em" x="0" >(QoS 1) [MQTTS /</tspan><tspan dy="1.2em" x="0" >JSON, Port</tspan><tspan dy="1.2em" x="0" >8883/1883]</tspan></text></g><g id="v-7384"  label-idx="1" cursor="move" transform="matrix(1,0,0,1,809.4487915039062,364.4329833984375)" style="cursor: default;"><rect joint-selector="rect" id="v-7388" fill="#ffffff" rx="3" ry="3" x="1.1368683772161603e-13" y="-5.684341886080802e-14" width="0" height="0"  display="none"></rect><text joint-selector="text" id="v-7387" fill="#000000" font-size="14" text-anchor="middle" text-vertical-anchor="middle" pointer-events="none"></text></g></g></g><!--z-index:23--><g   id="j_637"  style="opacity: 1;"><path fill="none" cursor="pointer" stroke="transparent" stroke-linecap="round" joint-selector="wrapper" id="v-7402" stroke-width="10" stroke-linejoin="round" d="M 625 693 L 990 693"></path><path fill="none" pointer-events="none" joint-selector="line" id="v-7401" stroke="#444444" stroke-width="2" stroke-linejoin="round" stroke-dasharray="8 8" d="M 625 693 L 990 693" marker-end="url(#v-21252848929)"></path><g id="v-7394" ><g id="v-7395"  label-idx="0" cursor="move" transform="matrix(1,0,0,1,820,693)" style="cursor: default;"><rect joint-selector="rect" id="v-7398" fill="#ffffff" rx="3" ry="3" x="-86.66661071777344" y="-59.64963150024414" width="173.23951721191406" height="114.87566375732422" pointer-events="none"  style="display: block;"></rect><text joint-selector="text" id="v-7397" font-size="24px" xml:space="preserve" fill="#444444" text-anchor="middle" pointer-events="none" font-family="Tahoma, Verdana, Helvetica, Arial" font-weight="normal"  style="display: block;"><tspan dy="-1.4999999999999998em" >Verwaltet Flotte,</tspan><tspan dy="1.2em" x="0" >sichtet Alarme,</tspan><tspan dy="1.2em" x="0" >konfiguriert</tspan><tspan dy="1.2em" x="0" >System [HTTPS]</tspan></text></g><g id="v-7396"  label-idx="1" cursor="move" transform="matrix(1,0,0,1,810,748.2000122070312)" style="cursor: default;"><rect joint-selector="rect" id="v-7400" fill="#ffffff" rx="3" ry="3" x="1.1368683772161603e-13" y="0" width="0" height="0"  display="none"></rect><text joint-selector="text" id="v-7399" fill="#000000" font-size="14" text-anchor="middle" text-vertical-anchor="middle" pointer-events="none"></text></g></g></g><!--z-index:24--><g   id="j_638"  style="opacity: 1;"><path fill="none" cursor="pointer" stroke="transparent" stroke-linecap="round" joint-selector="wrapper" id="v-7414" stroke-width="10" stroke-linejoin="round" d="M 625 1143 L 810 1143 C 816.6666666666666 1143 822.3333333333333 1140.3333333333333 827 1135 L 1083.33 843"></path><path fill="none" pointer-events="none" joint-selector="line" id="v-7413" stroke="#444444" stroke-width="2" stroke-linejoin="round" stroke-dasharray="8 8" d="M 625 1143 L 810 1143 C 816.6666666666666 1143 822.3333333333333 1140.3333333333333 827 1135 L 1083.33 843" marker-end="url(#v-21252848929)"></path><g id="v-7406" ><g id="v-7407"  label-idx="0" cursor="move" transform="matrix(1,0,0,1,819.3163452148438,1140.9686279296875)" style="cursor: default;"><rect joint-selector="rect" id="v-7410" fill="#ffffff" rx="3" ry="3" x="-89.87553405761719" y="-74.04962921142578" width="179.75106811523438" height="143.44140625" pointer-events="none"  style="display: block;"></rect><text joint-selector="text" id="v-7409" font-size="24px" xml:space="preserve" fill="#444444" text-anchor="middle" pointer-events="none" font-family="Tahoma, Verdana, Helvetica, Arial" font-weight="normal"  style="display: block;"><tspan dy="-2.1em" >Prüft</tspan><tspan dy="1.2em" x="0" >Batteriestatus,</tspan><tspan dy="1.2em" x="0" >sichtet Standorte</tspan><tspan dy="1.2em" x="0" >&amp; Historie mobil</tspan><tspan dy="1.2em" x="0" >[HTTPS]</tspan></text></g><g id="v-7408"  label-idx="1" cursor="move" transform="matrix(1,0,0,1,809.3163452148438,1210.568603515625)" style="cursor: default;"><rect joint-selector="rect" id="v-7412" fill="#ffffff" rx="3" ry="3" x="1.1368683772161603e-13" y="0" width="0" height="0"  display="none"></rect><text joint-selector="text" id="v-7411" fill="#000000" font-size="14" text-anchor="middle" text-vertical-anchor="middle" pointer-events="none"></text></g></g></g><!--z-index:25--><g   id="j_639"  style="opacity: 1;"><path fill="none" cursor="pointer" stroke="transparent" stroke-linecap="round" joint-selector="wrapper" id="v-7426" stroke-width="10" stroke-linejoin="round" d="M 1440 593.32 L 1601 522 C 1607 519.3333333333333 1613.3333333333333 518 1620 518 L 1780 518"></path><path fill="none" pointer-events="none" joint-selector="line" id="v-7425" stroke="#444444" stroke-width="2" stroke-linejoin="round" stroke-dasharray="8 8" d="M 1440 593.32 L 1601 522 C 1607 519.3333333333333 1613.3333333333333 518 1620 518 L 1780 518" marker-end="url(#v-21252848929)"></path><g id="v-7418" ><g id="v-7419"  label-idx="0" cursor="move" transform="matrix(1,0,0,1,1610.212890625,519.0078125)" style="cursor: default;"><rect joint-selector="rect" id="v-7422" fill="#ffffff" rx="3" ry="3" x="-97.55474090576172" y="-59.64963150024414" width="195.10948181152344" height="114.64139556884766" pointer-events="none"  style="display: block;"></rect><text joint-selector="text" id="v-7421" font-size="24px" xml:space="preserve" fill="#444444" text-anchor="middle" pointer-events="none" font-family="Tahoma, Verdana, Helvetica, Arial" font-weight="normal"  style="display: block;"><tspan dy="-1.4999999999999998em" >Authentifiziert</tspan><tspan dy="1.2em" x="0" >Benutzer via OIDC</tspan><tspan dy="1.2em" x="0" >/ OAuth 2.0</tspan><tspan dy="1.2em" x="0" >[HTTPS]</tspan></text></g><g id="v-7420"  label-idx="1" cursor="move" transform="matrix(1,0,0,1,1600.212890625,574.2078247070312)" style="cursor: default;"><rect joint-selector="rect" id="v-7424" fill="#ffffff" rx="3" ry="3" x="0" y="-1.1368683772161603e-13" width="0" height="0"  display="none"></rect><text joint-selector="text" id="v-7423" fill="#000000" font-size="14" text-anchor="middle" text-vertical-anchor="middle" pointer-events="none"></text></g></g></g><!--z-index:26--><g   id="j_640"  style="opacity: 1;"><path fill="none" cursor="pointer" stroke="transparent" stroke-linecap="round" joint-selector="wrapper" id="v-7438" stroke-width="10" stroke-linejoin="round" d="M 1440 792.68 L 1601 864 C 1607 866.6666666666666 1613.3333333333333 868 1620 868 L 1780 868"></path><path fill="none" pointer-events="none" joint-selector="line" id="v-7437" stroke="#444444" stroke-width="2" stroke-linejoin="round" stroke-dasharray="8 8" d="M 1440 792.68 L 1601 864 C 1607 866.6666666666666 1613.3333333333333 868 1620 868 L 1780 868" marker-end="url(#v-21252848929)"></path><g id="v-7430" ><g id="v-7431"  label-idx="0" cursor="move" transform="matrix(1,0,0,1,1610.212890625,866.9921875)" style="cursor: default;"><rect joint-selector="rect" id="v-7434" fill="#ffffff" rx="3" ry="3" x="-83.4665756225586" y="-59.64963150024414" width="166.9331512451172" height="114.64139556884766" pointer-events="none"  style="display: block;"></rect><text joint-selector="text" id="v-7433" font-size="24px" xml:space="preserve" fill="#444444" text-anchor="middle" pointer-events="none" font-family="Tahoma, Verdana, Helvetica, Arial" font-weight="normal"  style="display: block;"><tspan dy="-1.4999999999999998em" >Übergibt</tspan><tspan dy="1.2em" x="0" >Koordinaten zur</tspan><tspan dy="1.2em" x="0" >Routenplanung</tspan><tspan dy="1.2em" x="0" >[HTTPS]</tspan></text></g><g id="v-7432"  label-idx="1" cursor="move" transform="matrix(1,0,0,1,1600.212890625,922.1921997070312)" style="cursor: default;"><rect joint-selector="rect" id="v-7436" fill="#ffffff" rx="3" ry="3" x="0" y="0" width="0" height="0"  display="none"></rect><text joint-selector="text" id="v-7435" fill="#000000" font-size="14" text-anchor="middle" text-vertical-anchor="middle" pointer-events="none"></text></g></g></g><!--z-index:27--><!--z-index:28--><!--z-index:29--><!--z-index:30--><!--z-index:31--><!--z-index:32--><!--z-index:33--><!--z-index:34--><!--z-index:35--><!--z-index:36--><!--z-index:37--><!--z-index:38--><!--z-index:39--><!--z-index:40--><!--z-index:41--><!--z-index:42--><!--z-index:43--><!--z-index:44--><!--z-index:45--><!--z-index:46--><!--z-index:47--><!--z-index:48--><!--z-index:49--><!--z-index:50--><!--z-index:51--><!--z-index:52--><!--z-index:53--><!--z-index:54--><!--z-index:55--><!--z-index:56--><!--z-index:57--><!--z-index:58--><!--z-index:59--><!--z-index:60--><!--z-index:61--><!--z-index:62--><!--z-index:63--><!--z-index:64--><!--z-index:65--><!--z-index:66--><!--z-index:67--></g><g  style="user-select: none;"></g><g ></g><g  display="none"></g></g></svg>