<svg xmlns="http://www.w3.org/2000/svg" xmlns:xlink="http://www.w3.org/1999/xlink" version="1.1" data-diagram-type="DESCRIPTION" style="width:1394px;height:938px;background:#FFFFFF;" width="1394px" height="938px" viewBox="0 0 1394 938" zoomAndPan="magnify" preserveAspectRatio="none" contentStyleType="text/css"><?plantuml 1.2026.8?><defs/><g font-family="sans-serif" lengthAdjust="spacing"><g class="title" data-source-line="11"><text x="571.633" y="23.535" fill="#000" font-size="14" textLength="244.234" font-weight="700">TN-Watch - Use-Case-Diagramm</text></g><!--cluster TN-Watch System--><g class="cluster" data-qualified-name="TN-Watch System" id="ent0005" data-source-line="20"><rect x="481" y="164.281" width="841" height="640" fill="none" style="stroke:#181818;stroke-width:1;" rx="2.5" ry="2.5"/><text x="837.146" y="179.816" fill="#000" font-size="14" textLength="128.707" font-weight="700">TN-Watch System</text></g><!--entity BL--><g class="entity" data-qualified-name="BL" id="ent0001" data-source-line="14"><ellipse cx="282.635" cy="318.281" rx="8" ry="8" fill="#F1F1F1" style="stroke:#181818;stroke-width:0.5;"/><path d="M282.635,326.281 L282.635,353.281 M269.635,334.281 L295.635,334.281 M282.635,353.281 L269.635,368.281 M282.635,353.281 L295.635,368.281" style="stroke:#181818;stroke-width:0.5;" fill="none"/><text x="238" y="383.316" fill="#000" font-size="14" textLength="89.271">Betriebsleiter</text><text x="238" y="399.805" fill="#000" font-size="14" textLength="58.632">(Markus)</text></g><!--entity ST--><g class="entity" data-qualified-name="ST" id="ent0002" data-source-line="15"><ellipse cx="282.337" cy="439.281" rx="8" ry="8" fill="#F1F1F1" style="stroke:#181818;stroke-width:0.5;"/><path d="M282.337,447.281 L282.337,474.281 M269.337,455.281 L295.337,455.281 M282.337,474.281 L269.337,489.281 M282.337,474.281 L295.337,489.281" style="stroke:#181818;stroke-width:0.5;" fill="none"/><text x="227" y="504.316" fill="#000" font-size="14" textLength="110.674">Servicetechniker</text><text x="227" y="520.805" fill="#000" font-size="14" textLength="92.565">(Kevin / Anja)</text></g><!--entity TN--><g class="entity" data-qualified-name="TN" id="ent0003" data-source-line="16"><ellipse cx="45.689" cy="727.769" rx="8" ry="8" fill="#F1F1F1" style="stroke:#181818;stroke-width:0.5;"/><path d="M45.689,735.769 L45.689,762.769 M32.689,743.769 L58.689,743.769 M45.689,762.769 L32.689,777.769 M45.689,762.769 L58.689,777.769" style="stroke:#181818;stroke-width:0.5;" fill="none"/><text x="6" y="792.805" fill="#000" font-size="14" textLength="79.379">TrafficNode</text><text x="6" y="809.293" fill="#000" font-size="14" textLength="73.712">(Hardware)</text><text x="14.507" y="716.316" fill="#000" font-size="14" textLength="62.364" font-style="italic">«system»</text></g><!--entity MQTT--><g class="entity" data-qualified-name="MQTT" id="ent0004" data-source-line="17"><ellipse cx="282.416" cy="735.769" rx="8" ry="8" fill="#F1F1F1" style="stroke:#181818;stroke-width:0.5;"/><path d="M282.416,743.769 L282.416,770.769 M269.416,751.769 L295.416,751.769 M282.416,770.769 L269.416,785.769 M282.416,770.769 L295.416,785.769" style="stroke:#181818;stroke-width:0.5;" fill="none"/><text x="236" y="800.805" fill="#000" font-size="14" textLength="92.832">MQTT-Broker</text><text x="251.234" y="724.316" fill="#000" font-size="14" textLength="62.364" font-style="italic">«system»</text></g><g class="entity" data-qualified-name="GMN33" id="ent0034" data-source-line="68"><path d="M1059.5,820.281 L1059.5,922.144 A0,0 0 0 0 1059.5,922.144 L1378.522,922.144 A0,0 0 0 0 1378.522,922.144 L1378.522,830.281 L1368.522,820.281 L1075.681,820.281 L955.203,779.598 L1067.681,820.281 L1059.5,820.281 A0,0 0 0 0 1059.5,820.281" style="stroke:#181818;stroke-width:0.5;" fill="#FEFFDD"/><path d="M1368.522,820.281 L1368.522,830.281 L1378.522,830.281 L1368.522,820.281" style="stroke:#181818;stroke-width:0.5;" fill="#FEFFDD"/><text x="1065.5" y="837.849" fill="#000" font-size="13" textLength="82.45">Statusregeln:</text><text x="1065.5" y="853.16" fill="#000" font-size="13" textLength="298.022">- Normal:   U >= 12,4 V und Kontakt &lt; 30 min</text><text x="1065.5" y="868.471" fill="#000" font-size="13" textLength="219.14">- Warnung:  11,8 V &lt;= U &lt; 12,4 V</text><text x="1065.5" y="883.781" fill="#000" font-size="13" textLength="136.354">- Kritisch: U &lt; 11,8 V</text><text x="1065.5" y="899.092" fill="#000" font-size="13" textLength="188.913">- Offline:  Kontakt >= 30 min</text><text x="1065.5" y="914.402" fill="#000" font-size="13" textLength="261.473">Glaettung: gleitender Mittelwert (3 Werte)</text></g><g class="entity" data-qualified-name="GMN36" id="ent0037" data-source-line="77"><path d="M491.5,92.281 L491.5,119.904 L527.789,675.113 L491.5,127.904 L491.5,148.213 A0,0 0 0 0 491.5,148.213 L707.373,148.213 A0,0 0 0 0 707.373,148.213 L707.373,102.281 L697.373,92.281 L491.5,92.281 A0,0 0 0 0 491.5,92.281" style="stroke:#181818;stroke-width:0.5;" fill="#FEFFDD"/><path d="M697.373,92.281 L697.373,102.281 L707.373,102.281 L697.373,92.281" style="stroke:#181818;stroke-width:0.5;" fill="#FEFFDD"/><text x="497.5" y="109.849" fill="#000" font-size="13" textLength="160.297">Servicetechniker markiert</text><text x="497.5" y="125.16" fill="#000" font-size="13" textLength="157.466">kritische Nodes und wird</text><text x="497.5" y="140.471" fill="#000" font-size="13" textLength="194.873">an Google Maps weitergeleitet.</text></g><!--entity UC_F01--><g class="entity" data-qualified-name="TN-Watch System.UC_F01" id="ent0006" data-source-line="23"><ellipse cx="599.688" cy="757.068" rx="102.688" ry="30.787" fill="#F1F1F1" style="stroke:#181818;stroke-width:0.5;"/><text x="539.228" y="747.963" fill="#000" font-size="14" textLength="120.921">MQTT-Telemetrie</text><text x="510.958" y="764.452" fill="#000" font-size="14" textLength="177.461">empfangen und validieren</text><text x="582.53" y="780.94" fill="#000" font-size="14" textLength="34.316">(F01)</text></g><!--entity UC_F02--><g class="entity" data-qualified-name="TN-Watch System.UC_F02" id="ent0007" data-source-line="24"><ellipse cx="884.359" cy="755.049" rx="70.359" ry="32.268" fill="#F1F1F1" style="stroke:#181818;stroke-width:0.5;"/><text x="837.826" y="746.876" fill="#000" font-size="14" textLength="93.064">Automatische</text><text x="827.439" y="763.364" fill="#000" font-size="14" textLength="113.839">Statusbewertung</text><text x="867.2" y="779.852" fill="#000" font-size="14" textLength="34.316">(F02)</text></g><!--entity UC_F03--><g class="entity" data-qualified-name="TN-Watch System.UC_F03" id="ent0008" data-source-line="25"><ellipse cx="599.277" cy="327.461" rx="84.277" ry="34.18" fill="#F1F1F1" style="stroke:#181818;stroke-width:0.5;"/><text x="534.808" y="321.462" fill="#000" font-size="14" textLength="128.939">Flotten-Dashboard</text><text x="568.522" y="337.951" fill="#000" font-size="14" textLength="61.51">anzeigen</text><text x="582.119" y="354.439" fill="#000" font-size="14" textLength="34.316">(F03)</text></g><!--entity UC_F04--><g class="entity" data-qualified-name="TN-Watch System.UC_F04" id="ent0009" data-source-line="26"><ellipse cx="599.448" cy="413.427" rx="89.948" ry="34.146" fill="#F1F1F1" style="stroke:#181818;stroke-width:0.5;"/><text x="530.405" y="407.484" fill="#000" font-size="14" textLength="138.086">Kartenvisualisierung</text><text x="568.693" y="423.973" fill="#000" font-size="14" textLength="61.51">anzeigen</text><text x="582.289" y="440.461" fill="#000" font-size="14" textLength="34.316">(F04)</text></g><!--entity UC_F05--><g class="entity" data-qualified-name="TN-Watch System.UC_F05" id="ent0010" data-source-line="27"><ellipse cx="599.473" cy="241.467" rx="83.473" ry="34.186" fill="#F1F1F1" style="stroke:#181818;stroke-width:0.5;"/><text x="535.652" y="235.459" fill="#000" font-size="14" textLength="127.641">Geraetedetails und</text><text x="540.492" y="251.947" fill="#000" font-size="14" textLength="117.961">Historie einsehen</text><text x="582.314" y="268.435" fill="#000" font-size="14" textLength="34.316">(F05)</text></g><!--entity UC_F06--><g class="entity" data-qualified-name="TN-Watch System.UC_F06" id="ent0011" data-source-line="30"><ellipse cx="599.271" cy="510.193" rx="61.771" ry="44.912" fill="#F1F1F1" style="stroke:#181818;stroke-width:0.5;"/><text x="553.029" y="497.313" fill="#000" font-size="14" textLength="92.483">Ereignis- und</text><text x="553.511" y="513.802" fill="#000" font-size="14" textLength="91.52">Alarmhistorie</text><text x="568.947" y="530.29" fill="#000" font-size="14" textLength="60.648">einsehen</text><text x="582.113" y="546.778" fill="#000" font-size="14" textLength="34.316">(F06)</text></g><!--entity UC_F07--><g class="entity" data-qualified-name="TN-Watch System.UC_F07" id="ent0012" data-source-line="31"><ellipse cx="599.569" cy="674.196" rx="71.569" ry="33.415" fill="#F1F1F1" style="stroke:#181818;stroke-width:0.5;"/><text x="547.944" y="667.167" fill="#000" font-size="14" textLength="103.25">Routenplanung</text><text x="543.811" y="683.655" fill="#000" font-size="14" textLength="111.515">via Google Maps</text><text x="582.41" y="700.144" fill="#000" font-size="14" textLength="34.316">(F07)</text></g><!--entity UC_F08--><g class="entity" data-qualified-name="TN-Watch System.UC_F08" id="ent0013" data-source-line="34"><ellipse cx="884.738" cy="234.098" rx="78.238" ry="23.817" fill="#F1F1F1" style="stroke:#181818;stroke-width:0.5;"/><text x="825.146" y="234.379" fill="#000" font-size="14" textLength="119.185">CSV-Datenexport</text><text x="867.58" y="250.867" fill="#000" font-size="14" textLength="34.316">(F08)</text></g><!--entity UC_F09--><g class="entity" data-qualified-name="TN-Watch System.UC_F09" id="ent0014" data-source-line="35"><ellipse cx="1219.049" cy="755.519" rx="87.049" ry="32.238" fill="#F1F1F1" style="stroke:#181818;stroke-width:0.5;"/><text x="1160.106" y="747.664" fill="#000" font-size="14" textLength="117.886">Benachrichtigung</text><text x="1147.951" y="764.153" fill="#000" font-size="14" textLength="142.194">bei kritischem Status</text><text x="1201.89" y="780.641" fill="#000" font-size="14" textLength="34.316">(F09)</text></g><!--entity UC_AUTH--><g class="entity" data-qualified-name="TN-Watch System.UC_AUTH" id="ent0015" data-source-line="38"><ellipse cx="599.33" cy="598.38" rx="87.83" ry="24.599" fill="#F1F1F1" style="stroke:#181818;stroke-width:0.5;"/><text x="559.162" y="592.344" fill="#000" font-size="14" textLength="80.336">Anmelden /</text><text x="534.573" y="608.833" fill="#000" font-size="14" textLength="129.514">Benutzer verwalten</text></g><g class="link" data-entity-1="ent0003" data-entity-2="ent0004" id="lnk16" data-link-type="dependency"><polygon points="235.678,757.281,226.678,753.281,230.678,757.281,226.678,761.281,235.678,757.281" fill="#181818" style="stroke:#181818;stroke-width:1;stroke-linejoin:miter;stroke-miterlimit:10;"/><path d="M85.042,757.281 C126.32,757.281 186.793,757.281 230.678,757.281" style="stroke:#181818;stroke-width:1;" fill="none"/><text x="125.989" y="737.849" fill="#000" font-size="13" textLength="60.582">publiziert</text><text x="105" y="753.16" fill="#000" font-size="13" textLength="102.559">Telemetriedaten</text></g><g class="link" data-entity-1="ent0004" data-entity-2="ent0006" id="lnk17" data-link-type="dependency"><polygon points="496.994,757.281,487.994,753.281,491.994,757.281,487.994,761.281,496.994,757.281" fill="#181818" style="stroke:#181818;stroke-width:1;stroke-linejoin:miter;stroke-miterlimit:10;"/><path d="M329.304,757.281 C373.071,757.281 435.548,757.281 491.994,757.281" style="stroke:#181818;stroke-width:1;" fill="none"/><text x="396.397" y="737.849" fill="#000" font-size="13" textLength="36.962">liefert</text><text x="358" y="753.16" fill="#000" font-size="13" textLength="113.756">JSON-Nachrichten</text></g><g class="link" data-entity-1="ent0001" data-entity-2="ent0015" id="lnk18" data-link-type="dependency"><polygon points="511.244,585.069,504.589,577.809,506.66,583.073,501.395,585.144,511.244,585.069" fill="#181818" style="stroke:#181818;stroke-width:1;stroke-linejoin:miter;stroke-miterlimit:10;"/><path d="M324.589,402.944 C329.305,408.97 333.889,415.172 338,421.281 C347.546,435.466 344.112,442.992 356,455.281 C397.663,498.35 438.208,473.493 473,522.281 C484.033,537.752 468.206,550.232 481,564.281 C489.293,573.388 495.275,578.118 506.66,583.073" style="stroke:#181818;stroke-width:1;" fill="none"/></g><g class="link" data-entity-1="ent0001" data-entity-2="ent0008" id="lnk19" data-link-type="dependency"><polygon points="514.887,334.979,505.558,331.821,509.908,335.437,506.292,339.787,514.887,334.979" fill="#181818" style="stroke:#181818;stroke-width:1;stroke-linejoin:miter;stroke-miterlimit:10;"/><path d="M327.299,352.249 C375.648,347.798 449.625,340.987 509.908,335.437" style="stroke:#181818;stroke-width:1;" fill="none"/></g><g class="link" data-entity-1="ent0001" data-entity-2="ent0009" id="lnk20" data-link-type="dependency"><polygon points="509.464,397.17,501.32,391.631,504.544,396.279,499.895,399.503,509.464,397.17" fill="#181818" style="stroke:#181818;stroke-width:1;stroke-linejoin:miter;stroke-miterlimit:10;"/><path d="M327.299,364.207 C374.211,372.695 445.017,385.508 504.544,396.279" style="stroke:#181818;stroke-width:1;" fill="none"/></g><g class="link" data-entity-1="ent0001" data-entity-2="ent0010" id="lnk21" data-link-type="dependency"><polygon points="515.834,271.461,506.008,270.79,511.137,273.175,508.751,278.305,515.834,271.461" fill="#181818" style="stroke:#181818;stroke-width:1;stroke-linejoin:miter;stroke-miterlimit:10;"/><path d="M327.299,340.291 C375.901,322.547 450.736,295.227 511.137,273.175" style="stroke:#181818;stroke-width:1;" fill="none"/></g><g class="link" data-entity-1="ent0001" data-entity-2="ent0011" id="lnk22" data-link-type="dependency"><polygon points="537.355,482.596,530.844,475.207,532.811,480.511,527.507,482.478,537.355,482.596" fill="#181818" style="stroke:#181818;stroke-width:1;stroke-linejoin:miter;stroke-miterlimit:10;"/><path d="M327.124,379.347 C336.622,384.313 346.632,389.503 356,394.281 C411.244,422.455 425.042,429.552 481,456.281 C499.232,464.99 514.623,472.164 532.811,480.511" style="stroke:#181818;stroke-width:1;" fill="none"/></g><g class="link" data-entity-1="ent0001" data-entity-2="ent0013" id="lnk23" data-link-type="dependency"><polygon points="865.109,210.101,862.563,200.586,861.966,206.212,856.341,205.615,865.109,210.101" fill="#181818" style="stroke:#181818;stroke-width:1;stroke-linejoin:miter;stroke-miterlimit:10;"/><path d="M301.16,309.701 C328.511,245.087 387.88,130.847 481,83.281 C570.648,37.488 613.094,48.333 707.5,83.281 C776.216,108.719 833.04,170.419 861.966,206.212" style="stroke:#181818;stroke-width:1;" fill="none"/></g><g class="link" data-entity-1="ent0002" data-entity-2="ent0015" id="lnk24" data-link-type="dependency"><polygon points="511.451,574.507,504.059,567.999,506.68,573.012,501.667,575.633,511.451,574.507" fill="#181818" style="stroke:#181818;stroke-width:1;stroke-linejoin:miter;stroke-miterlimit:10;"/><path d="M338.034,503.654 C377.251,522.037 431.695,546.378 481,564.281 C490.781,567.833 496.351,569.775 506.68,573.012" style="stroke:#181818;stroke-width:1;" fill="none"/></g><g class="link" data-entity-1="ent0002" data-entity-2="ent0008" id="lnk25" data-link-type="dependency"><polygon points="514.815,356.326,504.978,355.844,510.152,358.131,507.866,363.305,514.815,356.326" fill="#181818" style="stroke:#181818;stroke-width:1;stroke-linejoin:miter;stroke-miterlimit:10;"/><path d="M338.036,446.217 C344.083,442.839 350.163,439.471 356,436.281 C411.126,406.149 423.593,395.801 481,370.281 C491.818,365.472 498.692,362.567 510.152,358.131" style="stroke:#181818;stroke-width:1;" fill="none"/></g><g class="link" data-entity-1="ent0002" data-entity-2="ent0009" id="lnk26" data-link-type="dependency"><polygon points="509.25,431.414,499.634,429.286,504.35,432.41,501.227,437.126,509.25,431.414" fill="#181818" style="stroke:#181818;stroke-width:1;stroke-linejoin:miter;stroke-miterlimit:10;"/><path d="M338.009,466.206 C385.113,456.636 449.202,443.615 504.35,432.41" style="stroke:#181818;stroke-width:1;" fill="none"/></g><g class="link" data-entity-1="ent0002" data-entity-2="ent0010" id="lnk27" data-link-type="dependency"><polygon points="515.799,258.784,505.951,258.925,511.259,260.88,509.304,266.188,515.799,258.784" fill="#181818" style="stroke:#181818;stroke-width:1;stroke-linejoin:miter;stroke-miterlimit:10;"/><path d="M322.059,430.513 C337.06,412.624 351.691,395.666 356,392.281 C401.798,356.307 438.559,380.243 473,333.281 C486.05,315.487 466.939,301.287 481,284.281 C490.205,273.148 498.017,266.994 511.259,260.88" style="stroke:#181818;stroke-width:1;" fill="none"/></g><g class="link" data-entity-1="ent0002" data-entity-2="ent0011" id="lnk28" data-link-type="dependency"><polygon points="537.394,503.879,528.86,498.964,532.421,503.359,528.026,506.92,537.394,503.879" fill="#181818" style="stroke:#181818;stroke-width:1;stroke-linejoin:miter;stroke-miterlimit:10;"/><path d="M338.009,482.992 C393.565,488.812 474.592,497.3 532.421,503.359" style="stroke:#181818;stroke-width:1;" fill="none"/></g><g class="link" data-entity-1="ent0002" data-entity-2="ent0012" id="lnk29" data-link-type="dependency"><polygon points="527.838,652.859,520.67,646.105,523.12,651.204,518.021,653.654,527.838,652.859" fill="#181818" style="stroke:#181818;stroke-width:1;stroke-linejoin:miter;stroke-miterlimit:10;"/><path d="M317.543,523.908 C328.845,537.569 342.114,551.882 356,563.281 C406.997,605.146 471.64,633.141 523.12,651.204" style="stroke:#181818;stroke-width:1;" fill="none"/></g><g class="link" data-entity-1="ent0006" data-entity-2="ent0007" id="lnk30" data-link-type="dependency"><polygon points="813.597,755.775,804.569,751.839,808.597,755.81,804.625,759.839,813.597,755.775" fill="#181818" style="stroke:#181818;stroke-width:1;stroke-linejoin:miter;stroke-miterlimit:10;"/><path d="M702.27,756.562 C739.192,756.301 775.041,756.048 808.597,755.81" style="stroke:#181818;stroke-width:1;stroke-dasharray:7,7;" fill="none"/><text x="727.5" y="750.849" fill="#000" font-size="13" textLength="59.357">«include»</text></g><g class="link" data-entity-1="ent0007" data-entity-2="ent0014" id="lnk31" data-link-type="dependency"><polygon points="1131.829,755.281,1122.829,751.281,1126.829,755.281,1122.829,759.281,1131.829,755.281" fill="#181818" style="stroke:#181818;stroke-width:1;stroke-linejoin:miter;stroke-miterlimit:10;"/><path d="M955.203,755.281 C1006.619,755.281 1071.889,755.281 1126.829,755.281" style="stroke:#181818;stroke-width:1;stroke-dasharray:7,7;" fill="none"/><text x="982.5" y="750.849" fill="#000" font-size="13" textLength="57.192">«extend»</text></g><g class="link" data-entity-1="ent0010" data-entity-2="ent0013" id="lnk32" data-link-type="dependency"><polygon points="806.119,236.195,797.023,232.419,801.121,236.319,797.221,240.416,806.119,236.195" fill="#181818" style="stroke:#181818;stroke-width:1;stroke-linejoin:miter;stroke-miterlimit:10;"/><path d="M683.116,239.238 C721.945,238.277 762.976,237.262 801.121,236.319" style="stroke:#181818;stroke-width:1;stroke-dasharray:7,7;" fill="none"/><text x="728.5" y="232.849" fill="#000" font-size="13" textLength="57.192">«extend»</text></g><?plantuml-src fLRRRjiu47tNLmpoaWI8ihdv4iC9OEVQJUrkAwLvCR2WfP74DKKP96MtMUo_xuYIRIeeskrM3xP7F7DuPZWpz3vS_SBZxKCuzL-OYJBmuLcZVyFeuvQpLB4yf-MF9Gg10_XqDxgTt1tdCHpSbt9XU26PG1Z9f50ngbAcAE7-vDI_Fxay8h_D4nYsmAmGX3c2Fr1fyjE71FWbsPx0n80fGF4qCn1pXL4boTCBBfUCjCEIHGkMOc2-aingcSbKeESPRkZ5TwCcTRuFeuN1KY7z_Dd7Ov4f5EoDqIYESosG6rGpUJ1XQb7gmprW6iRlDx00rOf7Q33A95zOu1Ekk8JVABr_iHeUX1jug5YIy6XQn4Z8HwRYDLDOey8fm72elsg3-VNrncFoCGpziIg8sw8g6vp7yQX33woPAfIlFnc_jyqq2TtakARRWxyz3s0V9gKs_YDR8PMIBPZE8RqlDKPq2etQ40NcDdqpYVaoORQ-IXd3YWaUSoHj53tvru4_t_n9lrsQKMcAd1ckeumug0nDgUUuHcMeLgthcUDwvhhUYy8ObFujqzcye0JF9ADCyBJPyznnF7STdvWYlnNN9OdKtBR56zyBn_V2zNr0nQW6OZIC2rs5EfEFNDC1SWJaKcFMK7GSYawTqY0hIX5lazgbfFPQIRrJ945oxTV48y5KdZNib66NlklGTrsEJqL9qIq5apQi5MVmK1JLKK_OKblVdkFRgwNTj9Jrg_dGKdOJVAP44p5-MHRAM9g-GzDtmMEKBCeKZpB3KwjYZXmMYjVdd4DzpfRaqY6vhBLGJL2KXYVyjJwSLi7876bCKTlD9ErJcbTKi4ArPeBKRRX6p-6Zzq_J9sCadipElW7SVQ4cbzXK-m_wngDEzVthkXK7i2pdmcgY-7Ub7rTfyIoamjOrJcZ1CR7GtuCFKt-woGXXlo6hFOH-qCtU-FrcAnlepgmgtRKkMbQdPNLRLlzRgjxElE_gyeAmfIe8NLMkTT6oEYshsx9wZQftCX9bZ3Hhg_EZ-VBVHrrp7iV73UKPqDaCXxncf67QlDq2Bci0seqswvtTUl_DUgrmMXZ-IcNvF-uXMHXihiWYsGswkaaKfYZaWEng3vKpCQ2xu1ckh-3qxEW2Fjjn-rH8ki4D3E7y178kBVo5gMe64FxqzAXFoE4LEGuRFmjvQdfoK2zOc5tua2I2I_f7iQMc3RVS3uA6eB7SgQrOINySOC9f7ejgTiF1ERpGDnvwrM5L0Nfrc7EQsKM-ZRDNnVcso7AwVwicexNjp83g8hNp5jPSnRJ4f3lNO6qRXt9LVPlZtRx_0W00?></g></svg>